<svg width="16" height="16" viewBox="0 0 16 16" fill="none" xmlns="http://www.w3.org/2000/svg">
<path d="M7.08333 14.1667C5.80556 14.1667 4.61806 13.8542 3.52083 13.2292C2.4375 12.5903 1.57639 11.7292 0.9375 10.6458C0.3125 9.54858 0 8.36108 0 7.08333C0 5.80556 0.3125 4.625 0.9375 3.54167C1.57639 2.44444 2.4375 1.58333 3.52083 0.958333C4.61806 0.319442 5.80556 0 7.08333 0C8.36108 0 9.54167 0.319442 10.625 0.958333C11.7222 1.58333 12.5833 2.44444 13.2083 3.54167C13.8472 4.625 14.1667 5.80556 14.1667 7.08333C14.1667 8.36108 13.8472 9.54858 13.2083 10.6458C12.5833 11.7292 11.7222 12.5903 10.625 13.2292C9.54167 13.8542 8.36108 14.1667 7.08333 14.1667ZM7.08333 12.5C8.11108 12.5 9.03475 12.2708 9.85417 11.8125C10.6875 11.3402 11.3333 10.6944 11.7917 9.875C12.2639 9.04167 12.5 8.11108 12.5 7.08333C12.5 6.05556 12.2639 5.13194 11.7917 4.3125C11.3333 3.47917 10.6875 2.83333 9.85417 2.375C9.03475 1.90277 8.11108 1.66667 7.08333 1.66667C6.05556 1.66667 5.125 1.90277 4.29167 2.375C3.47222 2.83333 2.82639 3.47917 2.35417 4.3125C1.89583 5.13194 1.66667 6.05556 1.66667 7.08333C1.66667 8.11108 1.89583 9.04167 2.35417 9.875C2.82639 10.6944 3.47222 11.3402 4.29167 11.8125C5.125 12.2708 6.05556 12.5 7.08333 12.5ZM10.4792 11.6667L11.6667 10.4792L15.1667 14C15.4028 14.2361 15.4722 14.5 15.375 14.7917C15.2778 15.0833 15.0833 15.2847 14.7917 15.3958C14.5139 15.4931 14.25 15.4167 14 15.1667L10.4792 11.6667Z" fill="#BEBEBE"/>
</svg>
