<svg width="228" height="228" viewBox="0 0 228 228" fill="none" xmlns="http://www.w3.org/2000/svg">
<circle cx="102" cy="102" r="108" transform="matrix(-1 0 0 1 216 12)" fill="#293681" stroke="#4274D9" stroke-width="12"/>
<path d="M101 92C101 104.15 106.609 114 118.26 114C129.911 114 136 104.15 136 92C136 79.8497 129.911 70 118.26 70C106.609 70 101 79.8497 101 92Z" fill="white"/>
<path d="M60 92C60 104.15 65.6093 114 77.2603 114C88.9112 114 95 104.15 95 92C95 79.8497 88.9112 70 77.2603 70C65.6093 70 60 79.8497 60 92Z" fill="white"/>
<path d="M166 130.661C131.65 153.229 126.245 156.235 72.6896 160.484" stroke="white" stroke-width="17" stroke-linecap="round"/>
</svg>
