<svg width="228" height="228" viewBox="0 0 228 228" fill="none" xmlns="http://www.w3.org/2000/svg">
<circle cx="114" cy="114" r="108" fill="#BC4F4F" stroke="#E98B50" stroke-width="12"/>
<path d="M86 85C86 97.1503 80.3907 107 68.7397 107C57.0888 107 51 97.1503 51 85C51 72.8497 57.0888 63 68.7397 63C80.3907 63 86 72.8497 86 85Z" fill="white"/>
<path d="M127 85C127 97.1503 121.391 107 109.74 107C98.0888 107 92 97.1503 92 85C92 72.8497 98.0888 63 109.74 63C121.391 63 127 72.8497 127 85Z" fill="white"/>
<path d="M79 159C119.5 152 125.5 150.5 167.5 117" stroke="white" stroke-width="17" stroke-linecap="round"/>
</svg>
