<svg width="108" height="115" viewBox="0 0 108 115" fill="none" xmlns="http://www.w3.org/2000/svg">
<path d="M47.8052 22C47.8052 34.1503 42.1958 44 30.5449 44C18.894 44 12.8052 34.1503 12.8052 22C12.8052 9.84974 18.894 0 30.5449 0C42.1958 0 47.8052 9.84974 47.8052 22Z" fill="white"/>
<path d="M88.8052 22C88.8052 34.1503 83.1958 44 71.5449 44C59.894 44 53.8052 34.1503 53.8052 22C53.8052 9.84974 59.894 0 71.5449 0C83.1958 0 88.8052 9.84974 88.8052 22Z" fill="white"/>
<path d="M8.50053 68.8358C32.9998 101.175 77.4998 103.675 98.9996 65.6751" stroke="white" stroke-width="17" stroke-linecap="round"/>
</svg>
